<svg width="40" height="39" viewBox="0 0 40 39" fill="none" xmlns="http://www.w3.org/2000/svg">
<path d="M25.7128 19.2651L38.0941 6.88382C38.7695 6.20847 39.2197 5.30801 39.2197 4.18244C39.2197 3.05687 38.7695 2.15641 38.0941 1.48107L37.6439 1.03084C36.2932 -0.31985 33.5918 -0.31985 32.2411 1.03084L19.8599 13.4121L7.47855 1.03084C6.12786 -0.31985 3.42649 -0.31985 2.0758 1.03084L1.62557 1.48107C0.950229 2.15641 0.5 3.05687 0.5 4.18244C0.5 5.30801 0.950229 6.20847 1.62557 6.88382L14.0069 19.2651L1.62557 31.6464C0.950229 32.3218 0.5 33.2222 0.5 34.3478C0.5 35.4734 0.950229 36.3738 1.62557 37.0492L2.0758 37.4994C3.42649 38.8501 6.12786 38.8501 7.47855 37.4994L19.8599 25.1181L32.2411 37.4994C32.9165 38.1747 33.8169 38.625 34.9425 38.625C36.0681 38.625 36.9686 38.1747 37.6439 37.4994L38.0941 37.0492C38.7695 36.3738 39.2197 35.4734 39.2197 34.3478C39.2197 33.2222 38.7695 32.3218 38.0941 31.6464L25.7128 19.2651Z" fill="#16595A"/>
</svg>
