<svg width="44" height="42" viewBox="0 0 44 42" fill="none" xmlns="http://www.w3.org/2000/svg">
<path d="M29.9104 0.591553H13.9393C6.5859 0.591553 0.630005 6.37728 0.630005 13.5205V29.0353C0.630005 36.1786 6.5859 41.9643 13.9393 41.9643H29.9104C37.2637 41.9643 43.2196 36.1786 43.2196 29.0353V13.5205C43.2196 6.37728 37.2637 0.591553 29.9104 0.591553ZM39.2269 29.0353C39.2269 34.0292 35.0511 38.0856 29.9104 38.0856H13.9393C8.79856 38.0856 4.62278 34.0292 4.62278 29.0353V13.5205C4.62278 8.52672 8.79856 4.47025 13.9393 4.47025H29.9104C35.0511 4.47025 39.2269 8.52672 39.2269 13.5205V29.0353Z" fill="#30ABAE"/>
</svg>
